<svg xmlns="http://www.w3.org/2000/svg" viewBox="0 0 72.312 95.106">
  <path id="Path_9" data-name="Path 9" d="M39.955-27.51c0,1.31-.917,2.227-2.62,2.227-4.061,0-8.777-3.93-12.183-9.694L1.441-22.139C4.847-12.707,15.851,1.7,37.728,1.7S73.491-9.825,73.491-27.9c0-25.807-35.894-27.9-35.894-36.549a2.463,2.463,0,0,1,2.751-2.358c4.192,0,8.122,4.323,10.087,8.384L73.753-71.788C71.264-79.648,59.605-93.4,38.645-93.4,18.078-93.4,4.192-81.875,4.192-64.19,4.192-37.073,39.955-35.894,39.955-27.51Z" transform="translate(-1.441 93.403)"/>
</svg>
