<svg xmlns="http://www.w3.org/2000/svg" viewBox="0 0 495.835 275.106">
  <g id="Group_10" data-name="Group 10" transform="translate(-0.655 -0.597)">
    <path id="Path_6" data-name="Path 6" d="M3.93,0H36.68C67.465,0,87.9-17.685,87.9-45.981,87.9-74.67,67.2-91.7,36.68-91.7H3.93ZM36.156-65.5h1.965c9.563,0,15.851,6.157,15.851,19.519S47.684-26.2,38.121-26.2H36.156ZM95.761,0h33.274V-91.7H95.761Zm44.016,0h41.789c19.912,0,33.667-10.087,33.667-28.689a22.5,22.5,0,0,0-11.266-19.257c6.681-4.585,9.432-10.48,9.432-17.947C213.4-81.22,200.43-91.7,179.47-91.7H139.777Zm31.964-56.985V-67.2h5.764a4.978,4.978,0,0,1,5.24,5.109,4.978,4.978,0,0,1-5.24,5.109Zm0,32.357V-36.942h5.764a6.068,6.068,0,0,1,6.157,6.157,6.068,6.068,0,0,1-6.157,6.157ZM224.141,0h58.426V-25.807H257.415V-91.7H224.141Zm121.7-14.017L349.9,0h34.06l-31.7-91.7h-32.75L287.807,0H320.3l4.061-14.017Zm-5.633-23.318H329.858L335.1-56.2Zm83.316,9.825c0,1.31-.917,2.227-2.62,2.227-4.061,0-8.777-3.93-12.183-9.694L385.009-22.139C388.415-12.707,399.419,1.7,421.3,1.7S457.059-9.825,457.059-27.9c0-25.807-35.894-27.9-35.894-36.549a2.463,2.463,0,0,1,2.751-2.358c4.192,0,8.122,4.323,10.087,8.384l23.318-13.362c-2.489-7.86-14.148-21.615-35.108-21.615-20.567,0-34.453,11.528-34.453,29.213C387.76-37.073,423.523-35.894,423.523-27.51ZM465.967,0h33.274V-91.7H465.967Z" transform="translate(-3 274)"/>
    <path id="Path_5" data-name="Path 5" d="M58.688-14.017,62.749,0h34.06l-31.7-91.7H32.357L.655,0H33.143L37.2-14.017ZM53.055-37.335H42.706L47.946-56.2ZM98.774,0h41.789c19.912,0,33.667-10.087,33.667-28.689a22.5,22.5,0,0,0-11.266-19.257c6.681-4.585,9.432-10.48,9.432-17.947,0-15.327-12.969-25.807-33.929-25.807H98.774Zm31.964-56.985V-67.2H136.5a4.978,4.978,0,0,1,5.24,5.109,4.978,4.978,0,0,1-5.24,5.109Zm0,32.357V-36.942H136.5a6.068,6.068,0,0,1,6.157,6.157,6.068,6.068,0,0,1-6.157,6.157ZM177.636,0h41.789c19.912,0,33.667-10.087,33.667-28.689a22.5,22.5,0,0,0-11.266-19.257c6.681-4.585,9.432-10.48,9.432-17.947,0-15.327-12.969-25.807-33.929-25.807H177.636ZM209.6-56.985V-67.2h5.764a4.978,4.978,0,0,1,5.24,5.109,4.978,4.978,0,0,1-5.24,5.109Zm0,32.357V-36.942h5.764a6.068,6.068,0,0,1,6.157,6.157,6.068,6.068,0,0,1-6.157,6.157ZM304.313,1.7c31.309,0,50.7-20.829,50.7-47.684,0-26.462-19.388-47.422-50.7-47.422s-50.7,20.96-50.7,47.422C253.616-19.126,273,1.7,304.313,1.7Zm0-67.727c10.218,0,15.982,8.515,15.982,20.043,0,11.921-5.764,20.305-15.982,20.305-10.349,0-15.982-8.384-15.982-20.305C288.331-57.509,293.964-66.024,304.313-66.024ZM372.04,0h33.274V-65.893h18.078V-91.7h-69.3v25.807H372.04Zm73.1,0h33.274V-65.893H496.49V-91.7h-69.3v25.807h17.947Z" transform="translate(0 184)"/>
    <path id="Path_4" data-name="Path 4" d="M58.688-14.017,62.749,0h34.06l-31.7-91.7H32.357L.655,0H33.143L37.2-14.017ZM53.055-37.335H42.706L47.946-56.2Zm80.434,9.825c0,1.31-.917,2.227-2.62,2.227-4.061,0-8.777-3.93-12.183-9.694L94.975-22.139C98.381-12.707,109.385,1.7,131.262,1.7S167.025-9.825,167.025-27.9c0-25.807-35.894-27.9-35.894-36.549a2.463,2.463,0,0,1,2.751-2.358c4.192,0,8.122,4.323,10.087,8.384l23.318-13.362C164.8-79.648,153.139-93.4,132.179-93.4c-20.567,0-34.453,11.528-34.453,29.213C97.726-37.073,133.489-35.894,133.489-27.51ZM173.051,0h33.274V-32.881h19.388V0h33.274V-91.7H225.713v33.012H206.325V-91.7H173.051Zm93.8,0h57.247V-25.807h-24.1V-34.06h21.484V-58.295H299.99v-7.6h24.1V-91.7H266.847Z" transform="translate(0 94)"/>
  </g>
</svg>
